<svg width="100" height="100" viewBox="0 0 100 100" xmlns="http://www.w3.org/2000/svg">
    <!-- Body -->
    <path d="M 50,60 C 40,80 30,95 30,95 L 70,95 C 70,95 60,80 50,60 Z" fill="#6a4c93"/>
    <!-- Head -->
    <circle cx="50" cy="45" r="15" fill="#f0d9a9"/>
    <!-- Hat -->
    <path d="M 50,10 L 30,40 L 70,40 Z" fill="#192a56"/>
    <!-- Star on Hat -->
    <path d="M 50,20 L 52,25 L 57,25 L 53,28 L 55,33 L 50,30 L 45,33 L 47,28 L 43,25 L 48,25 Z" fill="#f1c40f"/>
    <!-- Beard -->
    <path d="M 40,55 C 40,65 50,70 50,70 C 50,70 60,65 60,55 L 40,55 Z" fill="#ffffff"/>
</svg>